# xmcd
# Copyright (C) 1995-1998 Ti Kan
#
# Track frame offsets:
#       150
#       21949
#       43227
#       61347
#       74370
#       94850
#       112978
#       128031
#       143085
#       159317
#       174797
#       189665
#
# Disc length: 2692 seconds
#
# Revision: 0
# Processed by: cddbd v1.5.2PL0 Copyright (c) Steve Scherf et al.
# Submitted via: CD-Import v1.0
#
DISCID=9f0a820c
DTITLE=Pornorama - Under The Second
DYEAR=2005
DGENRE=
TTITLE0=Kicking In Side Effects
TTITLE1=It Beats Fred
TTITLE2=Lofi
TTITLE3=Sugar, Honey Honey
TTITLE4=Under The Second
TTITLE5=Get You Off
TTITLE6=Better Off Dead
TTITLE7=Commotion
TTITLE8=Eddy and Irene
TTITLE9=Moisture
TTITLE10=All That We Can Do
TTITLE11=The News
EXTD=
EXTT0=
EXTT1=
EXTT2=
EXTT3=
EXTT4=
EXTT5=
EXTT6=
EXTT7=
EXTT8=
EXTT9=
EXTT10=
EXTT11=
PLAYORDER=
